<svg height="90" viewBox="0 0 130 90" width="130" xmlns="http://www.w3.org/2000/svg"><g fill="none" fill-rule="evenodd" transform="translate(22 30)"><rect fill="#fff" height="30" rx="1.5" width="86"/><path d="m25.865 17.705c.3686685 0 .6801654-.0431662.9345-.1295s.4619992-.2041659.623-.3535.2776663-.325499.35-.5285.1085-.4211655.1085-.6545c0-.4760024-.162165-.8504986-.4865-1.1235s-.8364965-.4095-1.5365-.4095h-2.023v3.199zm-2.03-7.504v3.15h1.638c.7000035 0 1.2226649-.135332 1.568-.406s.518-.6603308.518-1.169c0-.5553361-.162165-.9566654-.4865-1.204s-.8318299-.371-1.5225-.371zm1.715-1.281c.6440032 0 1.1946644.06183271 1.652.1855s.8329985.29983219 1.127.5285.5098326.5074984.6475.8365.2065.6988313.2065 1.1095c0 .2380012-.0361663.4678322-.1085.6895s-.1843326.4293324-.336.623-.3418322.3674992-.5705.5215-.4993318.2823328-.812.385c1.4280071.3033349 2.142 1.0616606 2.142 2.275 0 .4293355-.0804992.8224982-.2415 1.1795s-.3943318.6649987-.7.924-.6824978.4608326-1.1305.6055-.9589971.217-1.533.217h-3.696v-10.08zm11.589 2.94v7.14h-.91c-.2006677 0-.3289997-.0956657-.385-.287l-.112-.665c-.1493341.1586675-.3068325.3033327-.4725.434s-.3418324.2426662-.5285.336-.3861656.1656664-.5985.217-.4398321.077-.6825.077c-.392002 0-.7373318-.0653327-1.036-.196s-.549499-.3149988-.7525-.553-.3558328-.5238317-.4585-.8575-.154-.7011647-.154-1.1025v-4.543h1.505v4.543c0 .4806691.1108322.8539987.3325 1.12s.5588311.399 1.0115.399c.331335 0 .6404986-.0758326.9275-.2275s.5564987-.3604987.8085-.6265v-5.208zm4.323 7.252c-.5926696 0-1.0488317-.1668317-1.3685-.5005s-.4795-.8038303-.4795-1.4105v-4.158h-.784c-.0840004 0-.156333-.0268331-.217-.0805s-.091-.1341661-.091-.2415v-.609l1.155-.168.329-2.065c.0233334-.07933373.0629997-.14349975.119-.1925.0560003-.04900024.1306662-.0735.224-.0735h.77v2.345h3.15l.336-2.079c.0186668-.07933373.0559997-.14349975.112-.1925.0560003-.04900024.1306662-.0735.224-.0735h.77v2.345h1.981v1.085h-1.981v4.053c0 .2566679.0629994.452666.189.588s.2939989.203.504.203c.1166672 0 .2181662-.0151665.3045-.0455s.159833-.0629998.2205-.098.1131664-.0676665.1575-.098.0851665-.0455.1225-.0455c.0513336 0 .0909999.0104999.119.0315s.0583332.0571664.091.1085l.448.735c-.2380012.2053344-.5144984.3628328-.8295.4725s-.6404983.1645-.9765.1645c-.5973363 0-1.0546651-.1668317-1.372-.5005s-.476-.8038303-.476-1.4105v-4.158h-3.094v4.053c0 .2566679.0629994.452666.189.588s.2939989.203.504.203c.1166672 0 .2169996-.0151665.301-.0455s.156333-.0629998.217-.098.1131664-.0676665.1575-.098.0874998-.0455.1295-.0455c.0840004 0 .1516664.0466662.203.14l.448.735c-.2333345.2053344-.5086651.3628328-.826.4725s-.6439983.1645-.98.1645zm10.658-7.364c.527336 0 1.0044979.0863325 1.4315.259s.7909985.4176651 1.092.735.5331659.7023311.6965 1.155c.1633342.4526689.245.9613305.245 1.526s-.0816658 1.0733311-.245 1.526c-.1633341.4526689-.3954985.8388317-.6965 1.1585s-.6649979.5658325-1.092.7385-.904164.259-1.4315.259c-.5320027 0-1.0114979-.0863325-1.4385-.259s-.7921651-.4188317-1.0955-.7385c-.3033348-.3196683-.5366659-.7058311-.7-1.1585-.1633342-.4526689-.245-.9613305-.245-1.526s.0816658-1.0733311.245-1.526c.1633341-.4526689.3966652-.8376651.7-1.155.3033349-.3173349.6684979-.5623325 1.0955-.735s.9064973-.259 1.4385-.259zm0 6.181c.6440032 0 1.1234984-.2158312 1.4385-.6475s.4725-1.0488293.4725-1.8515-.1574984-1.4221645-.4725-1.8585-.7944968-.6545-1.4385-.6545c-.6533366 0-1.1386651.2181645-1.456.6545s-.476 1.0558293-.476 1.8585.1586651 1.4198312.476 1.8515.8026634.6475 1.456.6475zm6.514-5.124c.1540008-.1586675.3138325-.302166.4795-.4305s.3418324-.2391662.5285-.3325.384999-.1656664.595-.217.4386654-.077.686-.077c.392002 0 .7361652.0653327 1.0325.196s.545999.3149988.749.553.3558328.5238317.4585.8575.154.7011647.154 1.1025v4.543h-1.498v-4.543c0-.4806691-.1108322-.8539987-.3325-1.12s-.5588311-.399-1.0115-.399c-.3360017 0-.6474986.0769992-.9345.231s-.5564987.3639987-.8085.63v5.201h-1.505v-7.14h.91c.2053344 0 .3359997.0956657.392.287z" fill="#111113"/></g></svg>