<svg height="90" viewBox="0 0 130 90" width="130" xmlns="http://www.w3.org/2000/svg"><g fill="#fff" fill-rule="evenodd" transform="translate(48 38)"><path d="m8.62092073 11.2783784v1.7216216h-7.62092073v-12.64864865h2.14338396v10.92702705zm3.78821527-7.23783786v8.95945946h-1.9693485v-8.95945946zm.3297513-2.7054054c0 .16982066-.035112.33085509-.1053372.4831081-.0702252.15225302-.1664017.28547241-.2885325.39966217-.1221307.11418976-.2641056.20495461-.4259288.27229729-.1618233.06734268-.3343304.10101352-.5175265.10101352-.1770896 0-.3434902-.03367084-.4992069-.10101352s-.2915852-.15810753-.4076094-.27229729-.2091475-.24740915-.2793727-.39966217c-.0702252-.15225301-.1053372-.31328744-.1053372-.4831081 0-.17567656.035112-.33963888.1053372-.4918919.0702252-.15225301.1633485-.2854724.2793727-.39966216s.2518927-.20495462.4076094-.2722973c.1557167-.06734267.3221173-.10101351.4992069-.10101351.1831961 0 .3557032.03367084.5175265.10101351.1618232.06734268.3037981.15810754.4259288.2722973.1221308.11418976.2183073.24740915.2885325.39966216.0702252.15225302.1053372.31621534.1053372.4918919zm4.2553631 3.89121621c.2015157-.19910009.4106615-.37916586.6274436-.5402027.216782-.16103684.4473004-.30011203.6915619-.41722973s.5037854-.20788256.7785796-.2722973c.2747942-.06441473.5740101-.09662162.8976565-.09662162.5129492 0 .9632996.08198116 1.3510647.24594595.3877652.16396478.71446.39526877.9800944.69391891.2656344.29865015.4656205.65731773.5999643 1.07601352s.2015147.87983982.2015147 1.38344594v5.70067568h-1.9601887v-5.70067568c0-.60315616-.1450281-1.07161995-.4350886-1.4054054-.2900606-.33378545-.7312513-.50067568-1.3235854-.50067568-.4396707 0-.847276.09662066-1.222828.28986487-.3755521.19324421-.7281994.45675509-1.0579524.79054054v6.52635135h-1.9693485v-8.95945946h1.1907689c.2686876 0 .4396681.12004385.5129466.36013514zm10.6671953-5.22635135v7.53648649h.421349c.1343438 0 .2442599-.0175674.3297514-.05270271s.174035-.10833277.2656331-.21959459l2.6196915-2.8722973c.091598-.1171177.1923544-.20495466.302272-.26351351.1099177-.05855885.250366-.08783784.421349-.08783784h1.7861533l-3.1509576 3.40810811c-.1831961.22837952-.3847088.40990924-.6045442.54459459.1221308.0819824.2289936.1742112.3205916.27668919.0915981.10247799.1801416.21812999.2656331.34695946l3.3616321 4.38310811h-1.758674c-.15877 0-.2946384-.0248871-.4076094-.0746622-.1129709-.049775-.2122006-.1420038-.2976922-.2766892l-2.7021293-3.51351346c-.0915981-.13468536-.1831948-.22105837-.2747928-.25912163-.0915981-.03806325-.2289931-.05709459-.4121893-.05709459h-.4854673v4.18108108h-1.9693485v-13z"/><path d="m0 16h35v2h-35z"/></g></svg>