<svg height="90" viewBox="0 0 130 90" width="130" xmlns="http://www.w3.org/2000/svg"><g fill="#fff" fill-rule="evenodd"><path d="m4 .02020953h29.7346032c2.209139 0 4 1.790861 4 4v20.52459017c0 2.209139-1.790861 4-4 4h-29.7346032c-2.209139 0-4-1.790861-4-4v-20.52459017c0-2.209139 1.790861-4 4-4zm16.2943719 14.40108907-8.8480901-8.69617103c-.3654631.0801029-.6649666.39090756-.6649666 1.015629v15.39139363c0 .5883234.2356094 1.0020981.6713009 1.0433674zm.3999458-.4138283 2.3644368-2.3233365s-10.2748282-5.50829211-10.8899464-5.83804003c-.2364356-.12678449-.4942152-.17103052-.7223886-.12110151zm.4065785.3994441 2.6681281 2.3540452s3.02197-1.6253901 3.1513284-1.6950491c.4362423-.2346257.8932778-.8333679 0-1.3119556-.2269333-.1218148-3.1374529-1.6817247-3.1374529-1.6817247zm-9.6481424 8.7686032c.199669.0248968.4398226-.0270618.7160543-.1756311.5718795-.3075572 6.7134221-3.6108547 10.8925628-5.8586073l-2.3669934-2.3722943z" transform="translate(68 31)"/><path d="m4 0h31c2.209139 0 4 1.790861 4 4v21c0 2.209139-1.790861 4-4 4h-31c-2.209139 0-4-1.790861-4-4v-21c0-2.209139 1.790861-4 4-4zm17.21395 8.55588379c.5801606-.71467323 1.0199598-1.72479797.8608835-2.75588379-.9482195.06288326-2.056555.6418085-2.7032573 1.39640761-.5895181.68373068-1.0740249 1.70084245-.8847969 2.6880098 1.0365952.03094256 2.1064612-.56195674 2.7271707-1.32853362zm5.1237123 9.69899411c-3.017251-1.0949672-3.5007182-5.1883679-.5146586-6.7594513-.9107897-1.0899765-2.1906781-1.7218035-3.3988262-1.7218035-1.5959615 0-2.2707361.7286473-3.3790716.7286473-1.1426461 0-2.0108076-.72665101-3.3905085-.72665101-1.3557875 0-2.7989111.79053241-3.7138597 2.14202341-1.2861266 1.9034663-1.0667469 5.4818232 1.0189201 8.530164.7454752 1.0909747 1.7415215 2.3166991 3.0442836 2.3276788 1.1592815.0109796 1.4867915-.7096825 3.0577999-.7176677 1.5710084-.0089833 1.8694064.726651 3.0266085.7146732 1.3038018-.0099814 2.354953-1.3684595 3.1004282-2.4594341.5344132-.7815491.7340383-1.1758172 1.1488843-2.0581791z" transform="translate(24 31)"/></g></svg>