<svg height="90" viewBox="0 0 130 90" width="130" xmlns="http://www.w3.org/2000/svg"><g fill="#fff" fill-rule="evenodd" transform="translate(22 19)"><path d="m22.5806452 9.67719924c0-1.77854085 1.4470219-3.22558634 3.2262395-3.22558634 1.7787845 0 3.2253734 1.44704549 3.2253734 3.22558634 0 1.77898106-1.4465889 3.22602656-3.2253734 3.22602656-1.7792176 0-3.2262395-1.4470455-3.2262395-3.22602656zm-18.70967746 17.41957496v-4.4051901l11.06977076-9.143197 10.8788455 9.6340359c.64118.5676427 1.5910442.5782363 2.2430476.0242771l4.6830815-3.9721749 4.0284804 3.4394029v4.4228461zm32.90322576-23.87096775v14.67767315l-2.9128013-2.4651665c-.6420459-.5434393-1.5763243-.5447519-2.2196689-.0035004l-4.6623005 3.920026-10.8645586-9.53687773c-.634253-.55700336-1.5724279-.57319278-2.2257301-.03850455l-10.01816636 8.20234488v-14.75599485zm-35.03506307-3.22580645c-.96043478 0-1.73913043.77582489-1.73913043 1.73271889v26.85714291c0 .956894.77869565 1.7327188 1.73913043 1.7327188h36.52173917c.9604347 0 1.7391304-.7758248 1.7391304-1.7327188v-26.85714291c0-.956894-.7786957-1.73271889-1.7391304-1.73271889z"/><path d="m69.5806452 9.67719924c0-1.77854085 1.4470219-3.22558634 3.2262395-3.22558634 1.7787845 0 3.2253734 1.44704549 3.2253734 3.22558634 0 1.77898106-1.4465889 3.22602656-3.2253734 3.22602656-1.7792176 0-3.2262395-1.4470455-3.2262395-3.22602656zm-18.7096775 17.41957496v-4.4051901l11.0697708-9.143197 10.8788455 9.6340359c.64118.5676427 1.5910442.5782363 2.2430476.0242771l4.6830815-3.9721749 4.0284804 3.4394029v4.4228461zm32.9032258-23.87096775v14.67767315l-2.9128013-2.4651665c-.6420459-.5434393-1.5763243-.5447519-2.2196689-.0035004l-4.6623005 3.920026-10.8645586-9.53687773c-.634253-.55700336-1.5724279-.57319278-2.2257301-.03850455l-10.0181664 8.20234488v-14.75599485zm-35.0350631-3.22580645c-.9604347 0-1.7391304.77582489-1.7391304 1.73271889v26.85714291c0 .956894.7786957 1.7327188 1.7391304 1.7327188h36.5217392c.9604347 0 1.7391304-.7758248 1.7391304-1.7327188v-26.85714291c0-.956894-.7786957-1.73271889-1.7391304-1.73271889z"/><rect height="3" rx="1.5" width="18.604651" y="35"/><rect height="3" rx="1.5" width="40" y="40"/><rect height="3" rx="1.5" width="40" y="45"/><rect height="3" rx="1.5" width="39.744186" y="50"/><rect height="3" rx="1.5" width="18.604651" x="47" y="35"/><rect height="3" rx="1.5" width="40" x="47" y="40"/><rect height="3" rx="1.5" width="40" x="47" y="45"/><rect height="3" rx="1.5" width="39.744186" x="47" y="50"/></g></svg>