<svg height="90" viewBox="0 0 130 90" width="130" xmlns="http://www.w3.org/2000/svg"><g fill="#fff" fill-rule="evenodd" transform="translate(21 36)"><path d="m13.5483871 5.80631954c0-1.06712451.8682132-1.9353518 1.9357437-1.9353518 1.0672707 0 1.935224.86822729 1.935224 1.9353518 0 1.06738865-.8679533 1.93561594-1.935224 1.93561594-1.0675305 0-1.9357437-.86822729-1.9357437-1.93561594zm-11.22580645 10.45174496v-2.643114l6.64186247-5.48591824 6.52730728 5.78042154c.384708.3405856.9546265.3469418 1.3458285.0145662l2.8098489-2.3833049 2.4170883 2.0636417v2.6537077zm19.74193545-14.32258063v8.80660393l-1.7476808-1.47909995c-.3852275-.32606356-.9457946-.32685115-1.3318013-.00210025l-2.7973803 2.3520156-6.51873519-5.72212662c-.38055179-.33420202-.94345671-.34391566-1.33543803-.02310273l-6.01089983 4.92140695v-8.85359693zm-21.02103784-1.93548387c-.57626087 0-1.04347826.46549493-1.04347826 1.03963134v16.11428576c0 .5741364.46721739 1.0396313 1.04347826 1.0396313h21.91304344c.5762609 0 1.0434783-.4654949 1.0434783-1.0396313v-16.11428576c0-.57413641-.4672174-1.03963134-1.0434783-1.03963134z"/><path d="m45.5483871 5.80631954c0-1.06712451.8682132-1.9353518 1.9357437-1.9353518 1.0672707 0 1.935224.86822729 1.935224 1.9353518 0 1.06738865-.8679533 1.93561594-1.935224 1.93561594-1.0675305 0-1.9357437-.86822729-1.9357437-1.93561594zm-11.2258065 10.45174496v-2.643114l6.6418625-5.48591824 6.5273073 5.78042154c.384708.3405856.9546265.3469418 1.3458285.0145662l2.8098489-2.3833049 2.4170883 2.0636417v2.6537077zm19.7419355-14.32258063v8.80660393l-1.7476808-1.47909995c-.3852275-.32606356-.9457946-.32685115-1.3318013-.00210025l-2.7973803 2.3520156-6.5187352-5.72212662c-.3805518-.33420202-.9434567-.34391566-1.335438-.02310273l-6.0108999 4.92140695v-8.85359693zm-21.0210378-1.93548387c-.5762609 0-1.0434783.46549493-1.0434783 1.03963134v16.11428576c0 .5741364.4672174 1.0396313 1.0434783 1.0396313h21.9130434c.5762609 0 1.0434783-.4654949 1.0434783-1.0396313v-16.11428576c0-.57413641-.4672174-1.03963134-1.0434783-1.03963134z"/><path d="m77.5483871 5.80631954c0-1.06712451.8682132-1.9353518 1.9357437-1.9353518 1.0672707 0 1.935224.86822729 1.935224 1.9353518 0 1.06738865-.8679533 1.93561594-1.935224 1.93561594-1.0675305 0-1.9357437-.86822729-1.9357437-1.93561594zm-11.2258065 10.45174496v-2.643114l6.6418625-5.48591824 6.5273073 5.78042154c.384708.3405856.9546265.3469418 1.3458285.0145662l2.8098489-2.3833049 2.4170883 2.0636417v2.6537077zm19.7419355-14.32258063v8.80660393l-1.7476808-1.47909995c-.3852275-.32606356-.9457946-.32685115-1.3318013-.00210025l-2.7973803 2.3520156-6.5187352-5.72212662c-.3805518-.33420202-.9434567-.34391566-1.335438-.02310273l-6.0108999 4.92140695v-8.85359693zm-21.0210378-1.93548387c-.5762609 0-1.0434783.46549493-1.0434783 1.03963134v16.11428576c0 .5741364.4672174 1.0396313 1.0434783 1.0396313h21.9130434c.5762609 0 1.0434783-.4654949 1.0434783-1.0396313v-16.11428576c0-.57413641-.4672174-1.03963134-1.0434783-1.03963134z"/></g></svg>