<svg height="90" viewBox="0 0 130 90" width="130" xmlns="http://www.w3.org/2000/svg"><path d="m31.6129032 13.5480789c0-2.4899572 2.0258307-4.51582084 4.5167354-4.51582084 2.4902983 0 4.5155227 2.02586364 4.5155227 4.51582084 0 2.4905735-2.0252244 4.5164372-4.5155227 4.5164372-2.4909047 0-4.5167354-2.0258637-4.5167354-4.5164372zm-26.19354836 24.387405v-6.1672661l15.49767916-12.8004759 15.2303837 13.4876502c.8976519.7946999 2.2274618.809531 3.1402665.033988l6.5563141-5.5610448 5.6398727 4.815164v6.1919846zm46.06451616-33.41935487v20.54874237l-4.0779219-3.4512331c-.8988642-.760815-2.206854-.7626527-3.1075365-.0049006l-6.5272207 5.4880365-15.2103821-13.3516288c-.8879541-.7798047-2.2013989-.8024699-3.116022-.0539064l-14.02543296 11.4832829v-20.65839287zm-49.04908839-4.51612903c-1.3446087 0-2.43478261 1.08615484-2.43478261 2.42580645v37.60000005c0 1.3396516 1.09017391 2.4258064 2.43478261 2.4258064h51.13043479c1.3446087 0 2.4347826-1.0861548 2.4347826-2.4258064v-37.60000005c0-1.33965161-1.0901739-2.42580645-2.4347826-2.42580645z" fill="#fff" fill-rule="evenodd" transform="translate(37 24)"/></svg>