<svg height="90" viewBox="0 0 130 90" width="130" xmlns="http://www.w3.org/2000/svg"><g fill="#fff" fill-rule="evenodd" transform="translate(22 29)"><path d="m2 0v10h82v-10h.5c.8284271 0 1.5.67157288 1.5 1.5v9c0 .8284271-.6715729 1.5-1.5 1.5h-83c-.82842712 0-1.5-.6715729-1.5-1.5v-9c0-.82842712.67157288-1.5 1.5-1.5z"/><path d="m84 32v-10h-82v10h-.5c-.82842712 0-1.5-.6715729-1.5-1.5v-9c0-.8284271.67157288-1.5 1.5-1.5h83c.8284271 0 1.5.6715729 1.5 1.5v9c0 .8284271-.6715729 1.5-1.5 1.5z"/></g></svg>