<svg height="90" viewBox="0 0 130 90" width="130" xmlns="http://www.w3.org/2000/svg"><g fill="#fff" fill-rule="evenodd"><rect height="3" rx="1.5" width="11.162791" x="22" y="33"/><rect height="3" rx="1.5" width="24" x="22" y="38"/><rect height="3" rx="1.5" width="24" x="22" y="43"/><rect height="3" rx="1.5" width="23.846512" x="22" y="48"/><rect height="3" rx="1.5" width="24" x="22" y="53"/><rect height="3" rx="1.5" width="11.162791" x="53" y="33"/><rect height="3" rx="1.5" width="24" x="53" y="38"/><rect height="3" rx="1.5" width="24" x="53" y="43"/><rect height="3" rx="1.5" width="23.846512" x="53" y="48"/><rect height="3" rx="1.5" width="24" x="53" y="53"/><rect height="3" rx="1.5" width="11.162791" x="84" y="33"/><rect height="3" rx="1.5" width="24" x="84" y="38"/><rect height="3" rx="1.5" width="24" x="84" y="43"/><rect height="3" rx="1.5" width="23.846512" x="84" y="48"/><rect height="3" rx="1.5" width="24" x="84" y="53"/></g></svg>